<svg width="165" height="139" viewBox="0 0 165 139" fill="none" xmlns="http://www.w3.org/2000/svg">
<path d="M165 120.04V129.652C165 134.736 160.877 138.859 155.793 138.859H15.6217C10.5375 138.859 6.41492 134.736 6.41492 129.652V120.04H16.1252H62.2359C62.2359 124.725 66.0333 128.523 70.7154 128.523H100.699C105.385 128.523 109.182 124.725 109.182 120.04H155.29H165Z" fill="#5CBCD2" fill-opacity="0.7"/>
<path d="M155.29 34.4969V120.04H109.183H62.2362H16.1255V65.1348C19.0522 68.2644 22.5384 70.8624 26.4302 72.7681V109.735H71.5164H84.9401H122.169H144.982V70.247V37.7698H126.519H113.095H77.4258C77.1181 34.1508 76.2614 30.6855 74.9431 27.4616H148.255C152.139 27.4616 155.29 30.6121 155.29 34.4969Z" fill="#AEDEE9"/>
<path d="M144.981 70.2471V109.735H122.169L144.981 70.2471Z" fill="#AEDEE9"/>
<path d="M144.981 37.7698V70.2469L122.169 109.735H84.9399L126.519 37.7698H144.981Z" fill="#FFF9F6"/>
<path d="M126.518 37.7698L84.9394 109.735H71.5156L113.095 37.7698H126.518Z" fill="#AEDEE9"/>
<path d="M113.095 37.7697L71.5164 109.735H26.4302V72.768C31.1402 75.0828 36.4412 76.3801 42.0463 76.3801C47.5152 76.3801 52.6937 75.1422 57.3198 72.9358L71.7471 86.0728L68.9568 64.0403C74.3207 57.8197 77.5621 49.7214 77.5621 40.8643C77.5621 39.8223 77.5167 38.7907 77.4257 37.7697H113.095Z" fill="#FFF9F6"/>
<path d="M62.2363 120.04H109.183C109.183 124.725 105.385 128.523 100.7 128.523H70.7158C66.0337 128.523 62.2363 124.725 62.2363 120.04Z" fill="#5CBCD2"/>
<path d="M26.4319 37.7706V109.736H144.983V37.7706H26.4319ZM140.787 105.54H30.6279V41.9666H140.787V105.54Z" fill="#5CBCD2"/>
<path d="M26.4296 72.7681C22.5378 70.8624 19.0516 68.2644 16.1248 65.1349C10.1735 58.7849 6.53345 50.253 6.53345 40.8644C6.53345 21.2515 22.4328 5.34863 42.0457 5.34863C56.9206 5.34863 69.6555 14.4925 74.9425 27.4616C76.2607 30.6856 77.1174 34.1508 77.4251 37.7698C77.516 38.7909 77.5615 39.8224 77.5615 40.8644C77.5615 49.7215 74.3201 57.8198 68.9562 64.0404L71.7465 86.073L57.3192 72.936C52.6931 75.1424 47.5145 76.3802 42.0457 76.3802C36.4405 76.3802 31.1396 75.0829 26.4296 72.7681ZM62.4419 56.2813V51.0362H21.6531V56.2813H62.4419ZM62.4419 45.3821V40.1371H21.6531V45.3821H62.4419ZM62.4419 34.483V29.238H21.6531V34.483H62.4419Z" fill="#FFA67C"/>
<path d="M66.7547 24.5281H18.0188V57.7922H66.7547V24.5281Z" fill="#FFF9F6"/>
<g clip-path="url(#clip0)">
<path d="M60.8391 21.809L24.7573 21.4771C22.2607 21.4542 19.8014 22.4422 18.0082 24.1925L13.6438 24.2211C11.4992 26.3144 17.5121 43.9961 11.0679 46.2664L17.4738 59.6721C19.2369 61.4785 21.6054 62.4876 24.1403 62.5118L60.2221 62.8437C62.3322 62.8622 64.3292 62.0579 65.8413 60.5821C67.3533 59.1062 68.2057 57.1292 68.2384 55.0193L68.6179 29.7788C68.6515 27.6698 67.8588 25.6795 66.3888 24.1735C64.9188 22.6674 62.9483 21.8265 60.8391 21.809ZM22.0859 43.3282L22.0251 47.3933C22.0195 47.7675 21.8628 48.1049 21.6139 48.3478C21.3651 48.5907 21.0241 48.7391 20.6498 48.7357C19.9011 48.7288 19.3039 48.1169 19.3152 47.3684L19.3962 41.9505L19.3957 41.9482L19.3962 41.9468L19.4772 36.5289C19.488 35.8103 20.1339 35.18 20.8525 35.1866L26.2723 35.2364C27.021 35.2433 27.6182 35.8552 27.6069 36.6037C27.5956 37.3523 26.9801 37.953 26.2316 37.946L22.1668 37.9087L22.1263 40.6186L24.8368 40.6442C25.5855 40.6511 26.1827 41.263 26.1714 42.0115C26.1657 42.3857 26.009 42.7231 25.7602 42.966C25.5113 43.2089 25.1703 43.3573 24.796 43.3539L22.0859 43.3282ZM37.8741 48.4982C37.6253 48.7411 37.2843 48.8895 36.9099 48.8862C36.1613 48.8793 35.5632 48.2665 35.5754 47.5189L35.6171 44.8064C35.6274 44.0607 35.0283 43.4469 34.2816 43.4381L32.9256 43.4285L32.8645 47.4931C32.8533 48.2417 32.2378 48.8424 31.4892 48.8354C30.7406 48.8285 30.1433 48.2166 30.1547 47.4681L30.2373 42.0993C30.2357 42.0825 30.235 42.0665 30.2362 42.0487C30.2354 42.0328 30.2367 42.0149 30.2379 41.9972L30.3197 36.6275C30.3309 35.8789 30.9464 35.2781 31.695 35.2851L34.4048 35.31C36.6468 35.3306 38.4422 37.1701 38.4085 39.412C38.3933 40.4225 38.0131 41.3744 37.33 42.1149C37.9639 42.8404 38.3417 43.7937 38.327 44.8314L38.2853 47.5439C38.2797 47.9179 38.123 48.2554 37.8741 48.4982ZM47.7922 46.2743C48.5408 46.2811 49.1381 46.893 49.1267 47.6415C49.1211 48.0157 48.9644 48.3532 48.7155 48.596C48.4667 48.8389 48.1257 48.9873 47.7513 48.984L42.3315 48.9341C41.5829 48.9273 40.9856 48.3154 40.997 47.5669L41.159 36.7272C41.1644 36.3679 41.3118 36.0249 41.5702 35.7727C41.8286 35.5204 42.175 35.3814 42.5344 35.3847L47.9551 35.4355C48.7037 35.4423 49.301 36.0542 49.2896 36.8027C49.2784 37.5513 48.6629 38.1521 47.9143 38.1451L43.8486 38.1068L43.8081 40.8174L46.5187 40.8424C47.2673 40.8492 47.8646 41.4611 47.8532 42.2096C47.8476 42.5838 47.6909 42.9213 47.442 43.1641C47.1932 43.407 46.8522 43.5554 46.4778 43.5521L43.7676 43.5272L43.7272 46.2369L47.7922 46.2743ZM60.1293 36.9024C60.118 37.651 59.5025 38.2518 58.754 38.2448L54.6892 38.2074L54.6484 40.917L57.3582 40.942C58.1069 40.9488 58.7041 41.5607 58.6928 42.3092C58.6871 42.6834 58.5304 43.0209 58.2816 43.2637C58.0328 43.5066 57.6917 43.655 57.3174 43.6517L54.6076 43.6268L54.5668 46.3364L58.6325 46.3747C59.3812 46.3816 59.9784 46.9935 59.9671 47.742C59.9615 48.1162 59.8047 48.4536 59.5559 48.6965C59.3071 48.9393 58.966 49.0878 58.5917 49.0844L53.171 49.0337C52.4223 49.0268 51.8251 48.4149 51.8364 47.6664L51.9994 36.8277C52.0107 36.0791 52.6262 35.4783 53.3747 35.4853L58.7946 35.5352C59.5434 35.542 60.1406 36.1539 60.1293 36.9024Z" fill="#FFA67C"/>
<path d="M35.2853 40.3431L35.2872 40.3413C35.5474 40.0873 35.6919 39.7488 35.6984 39.3868C35.7106 38.6392 35.1115 38.0254 34.3638 38.0195L33.0088 38.007L32.9681 40.7166L34.3221 40.7281C34.6861 40.7325 35.027 40.5953 35.2853 40.3431Z" fill="#FFA67C"/>
</g>
<defs>
<clipPath id="clip0">
<rect width="59.8002" height="59.4519" fill="white" transform="translate(0 41.7697) rotate(-44.3058)"/>
</clipPath>
</defs>
</svg>
