<svg width="140" height="140" viewBox="0 0 140 140" fill="none" xmlns="http://www.w3.org/2000/svg">
<path d="M2.1875 18.5938V127.964L4.37281 130.156H10.9375V130.134V110.491V108.281C10.9375 105.853 12.8844 103.906 15.3125 103.906H41.5625C43.9688 103.906 45.9375 105.853 45.9375 108.281V110.491V130.134V130.156H52.5V130.134V110.491V108.281C52.5 105.853 54.4469 103.906 56.875 103.906H83.125C85.5312 103.906 87.5 105.853 87.5 108.281V110.491V130.134V130.156H94.0625V130.134V110.491V108.281C94.0625 105.853 96.0094 103.906 98.4375 103.906H124.688C127.094 103.906 129.062 105.853 129.062 108.281V110.491V130.134V130.156H135.625L137.812 127.967V18.5938H2.1875Z" fill="#AEDEE9"/>
<path d="M10.9375 110.491H45.9375V130.134V130.156H10.9375V130.134V110.491Z" fill="#FFF9F6"/>
<path d="M45.9375 110.491H10.9375V108.281C10.9375 105.853 12.8844 103.906 15.3125 103.906H41.5625C43.9688 103.906 45.9375 105.853 45.9375 108.281V110.491Z" fill="#FFA67C"/>
<path d="M87.5 108.281V110.491H52.5V108.281C52.5 105.853 54.4469 103.906 56.875 103.906H83.125C85.5312 103.906 87.5 105.853 87.5 108.281Z" fill="#FFA67C"/>
<path d="M129.062 110.491H94.0625V108.281C94.0625 105.853 96.0094 103.906 98.4375 103.906H124.688C127.094 103.906 129.062 105.853 129.062 108.281V110.491Z" fill="#FFA67C"/>
<path d="M52.5 110.491H87.5V130.134V130.156H52.5V130.134V110.491Z" fill="#FFF9F6"/>
<path d="M94.0625 110.491H129.062V130.134V130.156H94.0625V130.134V110.491Z" fill="#FFF9F6"/>
<path d="M126.875 73.279C128.078 73.279 129.062 74.2634 129.062 75.4665V79.8437C129.062 81.0468 128.078 82.0312 126.875 82.0312H96.25C95.0469 82.0312 94.0625 81.0468 94.0625 79.8437V75.4665C94.0625 74.2634 95.0469 73.279 96.25 73.279H126.875Z" fill="#FFF9F6"/>
<path d="M137.812 18.5938H2.1875V14.2188C2.1875 11.7906 4.13437 9.84375 6.5625 9.84375H133.438C135.844 9.84375 137.812 11.7906 137.812 14.2188V18.5938Z" fill="#5CBCD2"/>
<path d="M85.3125 31.7165C86.5156 31.7165 87.5 32.7009 87.5 33.904V92.9687C87.5 94.1718 86.5156 95.1562 85.3125 95.1562H13.125C11.9219 95.1562 10.9375 94.1718 10.9375 92.9687V33.904C10.9375 32.7009 11.9219 31.7165 13.125 31.7165H85.3125Z" fill="#FFF9F6"/>
<path d="M8.81611 16.4019C7.60643 16.4019 6.61768 15.4241 6.61768 14.2144C6.61768 13.0047 7.58455 12.0269 8.79205 12.0269H8.81611C10.0236 12.0269 11.0036 13.0047 11.0036 14.2144C11.0036 15.4241 10.0236 16.4019 8.81611 16.4019Z" fill="#E6E9ED"/>
<path d="M15.3762 16.4019C14.1665 16.4019 13.1777 15.4241 13.1777 14.2144C13.1777 13.0047 14.1446 12.0269 15.3521 12.0269H15.3762C16.5837 12.0269 17.5637 13.0047 17.5637 14.2144C17.5637 15.4241 16.5837 16.4019 15.3762 16.4019Z" fill="#E6E9ED"/>
<path d="M21.9456 16.4019C20.7359 16.4019 19.7472 15.4241 19.7472 14.2144C19.7472 13.0047 20.7141 12.0269 21.9216 12.0269H21.9456C23.1531 12.0269 24.1331 13.0047 24.1331 14.2144C24.1331 15.4241 23.1531 16.4019 21.9456 16.4019Z" fill="#E6E9ED"/>
<path d="M129.061 49.2231H96.2524C95.0428 49.2231 94.0649 48.2453 94.0649 47.0356C94.0649 45.8259 95.0428 44.8481 96.2524 44.8481H129.061C130.27 44.8481 131.248 45.8259 131.248 47.0356C131.248 48.2453 130.27 49.2231 129.061 49.2231Z" fill="#FFF9F6"/>
<path d="M129.061 42.6606H96.2524C95.0428 42.6606 94.0649 41.6828 94.0649 40.4731C94.0649 39.2634 95.0428 38.2856 96.2524 38.2856H129.061C130.27 38.2856 131.248 39.2634 131.248 40.4731C131.248 41.6828 130.27 42.6606 129.061 42.6606Z" fill="#FFF9F6"/>
<path d="M111.543 55.7856H96.2524C95.0428 55.7856 94.0649 54.8078 94.0649 53.5981C94.0649 52.3884 95.0428 51.4106 96.2524 51.4106H111.543C112.753 51.4106 113.731 52.3884 113.731 53.5981C113.731 54.8078 112.753 55.7856 111.543 55.7856Z" fill="#FFF9F6"/>
<path d="M111.543 66.7188H96.2524C95.0428 66.7188 94.0649 65.7409 94.0649 64.5312C94.0649 63.3216 95.0428 62.3438 96.2524 62.3438H111.543C112.753 62.3438 113.731 63.3216 113.731 64.5312C113.731 65.7409 112.753 66.7188 111.543 66.7188Z" fill="#5CBCD2"/>
<path d="M120.313 64.5356H118.127C116.918 64.5356 115.94 63.5578 115.94 62.3481C115.94 61.1384 116.918 60.1606 118.127 60.1606H120.313C121.522 60.1606 122.5 61.1384 122.5 62.3481C122.5 63.5578 121.522 64.5356 120.313 64.5356Z" fill="#5CBCD2"/>
<path d="M120.314 68.9063C119.511 68.9063 118.739 68.4644 118.354 67.6966L116.169 63.326C115.629 62.2454 116.066 60.9307 117.147 60.3904C118.227 59.8522 119.542 60.2876 120.082 61.3682L122.268 65.7388C122.808 66.8194 122.37 68.1341 121.29 68.6744C120.977 68.8319 120.642 68.9063 120.314 68.9063Z" fill="#5CBCD2"/>
<path d="M120.313 68.9062H118.127C116.918 68.9062 115.94 67.9284 115.94 66.7188C115.94 65.5091 116.918 64.5312 118.127 64.5312H120.313C121.522 64.5312 122.5 65.5091 122.5 66.7188C122.5 67.9284 121.522 68.9062 120.313 68.9062Z" fill="#5CBCD2"/>
<path d="M41.5494 44.8481H19.6875C18.4778 44.8481 17.5 43.8703 17.5 42.6606C17.5 41.4509 18.4778 40.4731 19.6875 40.4731H41.5494C42.7591 40.4731 43.7369 41.4509 43.7369 42.6606C43.7369 43.8703 42.7591 44.8481 41.5494 44.8481Z" fill="#5CBCD2"/>
<path d="M48.1119 53.5981H24.0625C22.8528 53.5981 21.875 52.6203 21.875 51.4106C21.875 50.2009 22.8528 49.2231 24.0625 49.2231H48.1119C49.3216 49.2231 50.2994 50.2009 50.2994 51.4106C50.2994 52.6203 49.3216 53.5981 48.1119 53.5981Z" fill="#5CBCD2"/>
<path d="M41.5625 79.8569H24.0625C22.8528 79.8569 21.875 78.8791 21.875 77.6694C21.875 76.4597 22.8528 75.4819 24.0625 75.4819H41.5625C42.7722 75.4819 43.75 76.4597 43.75 77.6694C43.75 78.8791 42.7722 79.8569 41.5625 79.8569Z" fill="#AEDEE9"/>
<path d="M61.2374 53.5981H56.8624C55.6527 53.5981 54.6749 52.6203 54.6749 51.4106C54.6749 50.2009 55.6527 49.2231 56.8624 49.2231H61.2374C62.4471 49.2231 63.4249 50.2009 63.4249 51.4106C63.4249 52.6203 62.4471 53.5981 61.2374 53.5981Z" fill="#5CBCD2"/>
<path d="M30.625 88.5806H19.6875C18.4778 88.5806 17.5 87.6028 17.5 86.3931C17.5 85.1834 18.4778 84.2056 19.6875 84.2056H30.625C31.8347 84.2056 32.8125 85.1834 32.8125 86.3931C32.8125 87.6028 31.8347 88.5806 30.625 88.5806Z" fill="#AEDEE9"/>
<path d="M35 62.3481H28.4375C27.2278 62.3481 26.25 61.3703 26.25 60.1606C26.25 58.9509 27.2278 57.9731 28.4375 57.9731H35C36.2097 57.9731 37.1875 58.9509 37.1875 60.1606C37.1875 61.3703 36.2097 62.3481 35 62.3481Z" fill="#AEDEE9"/>
<path d="M69.9869 62.3481H43.75C42.5403 62.3481 41.5625 61.3703 41.5625 60.1606C41.5625 58.9509 42.5403 57.9731 43.75 57.9731H69.9869C71.1966 57.9731 72.1744 58.9509 72.1744 60.1606C72.1744 61.3703 71.1966 62.3481 69.9869 62.3481Z" fill="#AEDEE9"/>
<path d="M59.0494 71.0981H28.4375C27.2278 71.0981 26.25 70.1203 26.25 68.9106C26.25 67.7009 27.2278 66.7231 28.4375 66.7231H59.0494C60.2591 66.7231 61.2369 67.7009 61.2369 68.9106C61.2369 70.1203 60.2591 71.0981 59.0494 71.0981Z" fill="#5CBCD2"/>
<path d="M74.3624 71.0981H67.7999C66.5902 71.0981 65.6124 70.1203 65.6124 68.9106C65.6124 67.7009 66.5902 66.7231 67.7999 66.7231H74.3624C75.5721 66.7231 76.5499 67.7009 76.5499 68.9106C76.5499 70.1203 75.5721 71.0981 74.3624 71.0981Z" fill="#5CBCD2"/>
<path d="M26.2522 119.214H17.5C16.2903 119.214 15.3125 118.237 15.3125 117.027C15.3125 115.817 16.2903 114.839 17.5 114.839H26.2522C27.4619 114.839 28.4397 115.817 28.4397 117.027C28.4397 118.237 27.4619 119.214 26.2522 119.214Z" fill="#5CBCD2"/>
<path d="M32.8125 125.777H19.6875C18.4778 125.777 17.5 124.799 17.5 123.589C17.5 122.38 18.4778 121.402 19.6875 121.402H32.8125C34.0222 121.402 35 122.38 35 123.589C35 124.799 34.0222 125.777 32.8125 125.777Z" fill="#AEDEE9"/>
<path d="M65.625 119.214H59.0625C57.8528 119.214 56.875 118.237 56.875 117.027C56.875 115.817 57.8528 114.839 59.0625 114.839H65.625C66.8347 114.839 67.8125 115.817 67.8125 117.027C67.8125 118.237 66.8347 119.214 65.625 119.214Z" fill="#5CBCD2"/>
<path d="M76.5647 125.777H61.25C60.0403 125.777 59.0625 124.799 59.0625 123.589C59.0625 122.38 60.0403 121.402 61.25 121.402H76.5647C77.7744 121.402 78.7522 122.38 78.7522 123.589C78.7522 124.799 77.7744 125.777 76.5647 125.777Z" fill="#AEDEE9"/>
<path d="M109.377 119.214H100.625C99.4153 119.214 98.4375 118.237 98.4375 117.027C98.4375 115.817 99.4153 114.839 100.625 114.839H109.377C110.587 114.839 111.565 115.817 111.565 117.027C111.565 118.237 110.587 119.214 109.377 119.214Z" fill="#5CBCD2"/>
<path d="M115.938 125.777H102.812C101.603 125.777 100.625 124.799 100.625 123.589C100.625 122.38 101.603 121.402 102.812 121.402H115.938C117.147 121.402 118.125 122.38 118.125 123.589C118.125 124.799 117.147 125.777 115.938 125.777Z" fill="#AEDEE9"/>
<path d="M15.3125 27.3438H83.125C85.5312 27.3438 87.5 29.2906 87.5 31.7188V33.9062H10.9375V31.7188C10.9375 29.2906 12.8844 27.3438 15.3125 27.3438Z" fill="#FFA67C"/>
<path d="M4.375 130.152C5.58312 130.152 6.5625 129.173 6.5625 127.964C6.5625 126.756 5.58312 125.777 4.375 125.777C3.16688 125.777 2.1875 126.756 2.1875 127.964C2.1875 129.173 3.16688 130.152 4.375 130.152Z" fill="#E6E9ED"/>
<path d="M135.625 130.156C136.833 130.156 137.812 129.177 137.812 127.969C137.812 126.761 136.833 125.781 135.625 125.781C134.417 125.781 133.438 126.761 133.438 127.969C133.438 129.177 134.417 130.156 135.625 130.156Z" fill="#E6E9ED"/>
</svg>
