<svg width="108" height="131" viewBox="0 0 108 131" fill="none" xmlns="http://www.w3.org/2000/svg">
<path d="M54.9027 31.0001C42.532 31.033 32.4935 41.1246 32.5264 53.4964C32.5594 65.8682 42.6515 75.9061 55.0222 75.8732C67.394 75.8402 77.4325 65.7486 77.3995 53.3769C77.3666 41.0051 67.2744 30.9671 54.9027 31.0001Z" fill="#AEDEE9"/>
<path d="M27.6328 80.1719L41.2583 83.8226L43.1054 84.3177L56.7309 87.9685L45.7654 128.892C45.5768 129.596 44.7029 129.838 44.1785 129.334L33.7108 119.257C33.2374 118.801 32.5628 118.621 31.9247 118.778L17.8211 122.271C17.1145 122.446 16.4792 121.798 16.6678 121.095L27.6328 80.1719Z" fill="#FFA67C"/>
<path d="M80.37 80.1719L66.7445 83.8226L64.8973 84.3177L51.2719 87.9685L62.2374 128.892C62.426 129.595 63.2999 129.838 63.8242 129.333L74.292 119.256C74.7653 118.801 75.44 118.62 76.078 118.778L90.1817 122.27C90.8882 122.445 91.5236 121.798 91.335 121.095L80.37 80.1719Z" fill="#FFA67C"/>
<path d="M44.8343 130.665C44.3211 130.665 43.8255 130.469 43.4414 130.099L32.9736 120.022C32.7617 119.818 32.4647 119.738 32.1805 119.81L18.0763 123.303C17.374 123.475 16.6547 123.272 16.1495 122.756C15.6443 122.241 15.4541 121.518 15.6411 120.82L26.6066 79.8973C26.758 79.3305 27.3408 78.9921 27.9076 79.1461L57.0058 86.9427C57.2778 87.0155 57.5099 87.194 57.6507 87.4379C57.7915 87.6817 57.8298 87.9718 57.757 88.2443L46.7914 129.168C46.6044 129.866 46.0774 130.397 45.382 130.591C45.2003 130.641 45.016 130.665 44.8343 130.665ZM32.3908 117.659C33.1489 117.659 33.8837 117.949 34.4468 118.491L44.7854 128.443L55.429 88.7198L28.3836 81.473L17.74 121.196L31.6689 117.747C31.909 117.688 32.1513 117.659 32.3908 117.659Z" fill="#FFA67C"/>
<path d="M63.1687 130.665C62.9865 130.665 62.8027 130.64 62.6204 130.59C61.9245 130.396 61.398 129.865 61.2116 129.167L50.246 88.2432C50.1727 87.9707 50.2115 87.6806 50.3523 87.4368C50.4931 87.1929 50.7252 87.0144 50.9972 86.9416L80.0954 79.145C80.6612 78.991 81.245 79.3294 81.3964 79.8962L92.362 120.819C92.549 121.516 92.3588 122.24 91.8535 122.755C91.3489 123.272 90.6285 123.475 89.9272 123.301L75.8231 119.809C75.5383 119.738 75.2414 119.818 75.0294 120.022L64.5616 130.098C64.1775 130.469 63.6819 130.665 63.1687 130.665ZM52.5734 88.7197L63.217 128.443L73.5552 118.492C74.2968 117.778 75.3359 117.499 76.3336 117.747L90.2624 121.197L79.6189 81.4735L52.5734 88.7197Z" fill="#FFA67C"/>
<path d="M41.2704 6.88698L41.2959 16.4707C39.0349 17.1847 36.8296 18.1075 34.7312 19.2189L27.9307 12.4545C27.0148 11.5434 25.7982 11.043 24.5062 11.0467C23.2142 11.0499 22.0009 11.5572 21.0898 12.4731L11.3015 22.3134C10.3904 23.2293 9.89048 24.4459 9.8942 25.7379C9.89739 27.0293 10.4042 28.2427 11.3201 29.1538L18.1206 35.9182C17.0204 38.0225 16.1088 40.233 15.4075 42.4972L5.8243 42.5227C3.15689 42.5296 0.99311 44.7051 1.00002 47.3725L1.0372 61.2524C1.04411 63.9199 3.22011 66.0836 5.88698 66.0767L15.4702 66.0512C16.1837 68.3112 17.107 70.5164 18.2184 72.6159L11.454 79.4164C10.5429 80.3323 10.043 81.5489 10.0467 82.8403C10.0499 84.1323 10.5567 85.3462 11.4725 86.2573L21.3129 96.0456C22.2293 96.9567 23.4453 97.4571 24.7373 97.4534C26.0293 97.4502 27.2432 96.9429 28.1538 96.027L34.9182 89.2265C37.0225 90.3267 39.233 91.2373 41.4972 91.9396L41.5227 101.523C41.5296 104.191 43.7056 106.355 46.3725 106.348L60.2525 106.31C62.9193 106.304 65.0836 104.128 65.0767 101.461L65.0512 91.8769C67.3122 91.1629 69.5174 90.2401 71.6159 89.1287L78.4164 95.8931C79.3323 96.8042 80.5483 97.3047 81.8403 97.301C83.1323 97.2972 84.3462 96.7904 85.2568 95.8745L95.0456 86.0342C95.9567 85.1183 96.4566 83.9018 96.4529 82.6098C96.4492 81.3183 95.9429 80.1049 95.027 79.1938L88.2265 72.4294C89.3267 70.3251 90.2383 68.1146 90.9396 65.8504L100.523 65.8249C103.19 65.818 105.354 63.6425 105.347 60.9751L105.31 47.0952C105.303 44.4278 103.127 42.264 100.46 42.2709L90.8769 42.2964C90.1634 40.0364 89.2396 37.8312 88.1287 35.7317L94.8931 28.9312C95.8042 28.0153 96.3041 26.7988 96.3004 25.5073C96.2972 24.2153 95.7904 23.0014 94.8745 22.0903L85.0337 12.302C84.1178 11.3909 82.9018 10.8905 81.6092 10.8942C80.3172 10.8974 79.1039 11.4047 78.1928 12.3206L71.4284 19.1211C69.3241 18.0209 67.1135 17.1104 64.8494 16.408L64.8239 6.8243C64.817 4.15689 62.641 1.99311 59.9741 2.00002L46.0941 2.0372C43.4272 2.04411 41.2629 4.21958 41.2704 6.88698ZM53.1114 30.9473C65.9182 30.9133 76.3653 41.3046 76.3998 54.1114C76.4338 66.9188 66.0425 77.3653 53.2357 77.3998C40.4289 77.4338 29.9818 67.0425 29.9473 54.2357C29.9128 41.4289 40.3045 30.9818 53.1114 30.9473Z" fill="#5CBCD2"/>
<path d="M47.1866 106.66C45.6189 106.66 44.1431 106.05 43.0285 104.941C41.9103 103.829 41.2919 102.35 41.2882 100.776L41.2648 91.9652C39.4474 91.3627 37.6666 90.628 35.9534 89.7754L29.7351 96.0266C28.6237 97.1443 27.1442 97.7617 25.568 97.7659C25.5632 97.7659 25.5584 97.7659 25.5536 97.7659C23.9827 97.7659 22.5058 97.1566 21.3918 96.0489L11.5504 86.2606C10.4332 85.1492 9.81586 83.6692 9.81161 82.093C9.80736 80.5178 10.4167 79.0346 11.5281 77.9173L17.7464 71.6656C16.8831 69.956 16.1393 68.1795 15.5273 66.3658L6.71708 66.3892C6.71177 66.3892 6.70592 66.3892 6.70061 66.3892C5.13289 66.3892 3.65708 65.7799 2.54252 64.6712C1.42424 63.5587 0.805863 62.0797 0.801613 60.5061L0.764425 46.6257C0.755925 43.3728 3.39517 40.7192 6.64802 40.7102L15.4588 40.6868C16.0612 38.8699 16.7954 37.0892 17.6491 35.3748L11.3979 29.1571C10.2807 28.0457 9.66286 26.5662 9.65914 24.9905C9.65489 23.4143 10.2648 21.9305 11.3756 20.8143L21.1639 10.974C22.2753 9.85625 23.7553 9.23787 25.331 9.23469H25.348C26.9173 9.23469 28.3937 9.8435 29.5072 10.9512L35.7584 17.1694C37.4658 16.3072 39.2429 15.5635 41.0587 14.9504L41.0353 6.13962C41.0268 2.88678 43.666 0.233187 46.9189 0.224156L60.7989 0.1875H60.8153C62.383 0.1875 63.8589 0.796844 64.9734 1.90556C66.0917 3.018 66.7101 4.49753 66.7143 6.07109L66.7377 14.8819C68.5556 15.4848 70.3364 16.219 72.0497 17.0722L78.268 10.821C79.3788 9.70325 80.8589 9.08487 82.4351 9.08169H82.4521C84.0214 9.08169 85.4977 9.69103 86.6112 10.7987L96.4521 20.587C97.5693 21.6983 98.1867 23.1784 98.1909 24.7546C98.1952 26.3303 97.5853 27.8136 96.4744 28.9297L90.2561 35.1815C91.1194 36.8926 91.8637 38.6691 92.4752 40.4817L101.285 40.4578H101.3C104.547 40.4578 107.192 43.0944 107.2 46.342L107.238 60.2219C107.242 61.7955 106.631 63.2782 105.519 64.396C104.408 65.5137 102.928 66.1326 101.354 66.1363L92.5437 66.1597C91.9418 67.9766 91.2071 69.7568 90.3534 71.4717L96.6046 77.6894C97.7223 78.8008 98.3396 80.2809 98.3439 81.8566C98.3481 83.4322 97.7383 84.9155 96.6274 86.0327L86.8386 95.8731C85.7272 96.9908 84.2477 97.6081 82.672 97.6124C82.6672 97.6124 82.6619 97.6124 82.6572 97.6124C81.0862 97.6124 79.6094 97.003 78.4959 95.8954L72.2441 89.6776C70.5351 90.5404 68.758 91.2841 66.9444 91.8961L66.9677 100.707C66.9762 103.96 64.337 106.613 61.0841 106.622L47.2042 106.659C47.1978 106.66 47.1925 106.66 47.1866 106.66ZM35.7462 87.414C35.9135 87.414 36.0825 87.4533 36.2381 87.5351C38.2813 88.6034 40.435 89.4917 42.6391 90.1749C43.0827 90.3125 43.3856 90.7221 43.3871 91.1869L43.4126 100.771C43.4153 101.777 43.8111 102.723 44.5267 103.435C45.2428 104.147 46.1868 104.517 47.1973 104.535L61.0772 104.498C63.1581 104.492 64.847 102.795 64.8417 100.713L64.8162 91.1295C64.8151 90.6652 65.1158 90.254 65.5589 90.1138C67.7588 89.4189 69.9077 88.5195 71.9456 87.44C72.3573 87.2232 72.8625 87.2976 73.1924 87.6259L79.9929 94.3898C80.7053 95.0985 81.651 95.4884 82.6555 95.4884H82.6651C83.6729 95.4858 84.6201 95.0905 85.3309 94.3755L95.1197 84.5351C95.8306 83.8201 96.2205 82.8707 96.2178 81.8624C96.2152 80.8546 95.8199 79.9079 95.1054 79.1966L88.3043 72.4327C87.9744 72.1044 87.8963 71.5997 88.112 71.1869C89.1814 69.1411 90.0697 66.9879 90.7523 64.7854C90.8899 64.3412 91.2995 64.0384 91.7644 64.0374L101.348 64.0119C103.429 64.006 105.118 62.3087 105.112 60.2278L105.075 46.3473C105.07 44.2696 103.377 42.5828 101.3 42.5828C101.297 42.5828 101.294 42.5828 101.29 42.5828L91.707 42.6089C91.7059 42.6089 91.7054 42.6089 91.7043 42.6089C91.2406 42.6089 90.8304 42.3087 90.6912 41.8662C89.998 39.67 89.098 37.5211 88.0169 35.479C87.7991 35.0678 87.8745 34.5626 88.2029 34.2327L94.9673 27.4321C95.6781 26.7171 96.068 25.7688 96.0654 24.7605C96.0627 23.7522 95.6675 22.8049 94.9529 22.0941L85.1121 12.3058C84.397 11.5945 83.4402 11.2274 82.4399 11.2072C81.4316 11.2099 80.4849 11.6046 79.7741 12.3202L73.0091 19.1207C72.6808 19.4506 72.1756 19.5292 71.7633 19.313C69.7201 18.2447 67.567 17.3564 65.3618 16.6727C64.9182 16.5351 64.6154 16.1255 64.6138 15.6607L64.5883 6.07747C64.5856 5.07128 64.1898 4.12512 63.4737 3.41272C62.7602 2.70297 61.8162 2.31303 60.8143 2.31303C60.8106 2.31303 60.8074 2.31303 60.8036 2.31303L46.9237 2.34969C44.8428 2.35553 43.1539 4.05341 43.1592 6.13484L43.1847 15.7181C43.1858 16.1824 42.8856 16.5936 42.4426 16.7338C40.24 17.4297 38.0911 18.3297 36.0554 19.4081C35.6436 19.6259 35.139 19.5505 34.8085 19.2222L28.0091 12.4578C27.2966 11.7491 26.3521 11.3597 25.348 11.3597C25.3443 11.3597 25.3406 11.3597 25.3369 11.3597C24.3285 11.3623 23.3819 11.7571 22.6705 12.4727L12.8822 22.3125C12.1714 23.0275 11.7815 23.9763 11.7841 24.9852C11.7868 25.9924 12.1821 26.9397 12.8966 27.6505L19.6976 34.4143C20.0281 34.7427 20.1056 35.2473 19.89 35.6601C18.8211 37.7049 17.9328 39.8586 17.2496 42.0617C17.1121 42.5058 16.7025 42.8086 16.2376 42.8097L6.65386 42.8352C4.57296 42.841 2.88411 44.5389 2.88942 46.6203L2.92661 60.5003C2.93246 62.5775 4.62449 64.2642 6.70061 64.2642H6.71124L16.2945 64.2387H16.2971C16.7609 64.2387 17.1705 64.5389 17.3102 64.9809C18.0045 67.1802 18.9045 69.3291 19.9845 71.3676C20.2023 71.7787 20.1269 72.2845 19.7986 72.6144L13.0347 79.4155C12.3239 80.1311 11.9334 81.0799 11.9366 82.0871C11.9393 83.096 12.3345 84.0432 13.049 84.754L22.8894 94.5423C23.6018 95.251 24.5474 95.6409 25.5526 95.6409H25.5621C26.5699 95.6382 27.5171 95.243 28.2279 94.5279L34.9923 87.7274C35.1969 87.5223 35.4699 87.414 35.7462 87.414Z" fill="#5CBCD2"/>
<path d="M53.9994 85.2146C45.5525 85.2146 37.5986 81.9278 31.5918 75.9528C25.5648 69.9582 22.2328 61.9868 22.2104 53.5081C22.1881 45.0298 25.4771 37.0414 31.4723 31.0144C37.4674 24.9868 45.4383 21.6559 53.9165 21.6331H54.0026C71.4934 21.6331 85.7448 35.8371 85.792 53.3391C85.8388 70.8677 71.6156 85.1674 54.086 85.2146C54.0573 85.2146 54.0275 85.2146 53.9994 85.2146ZM54.002 23.7581C53.9749 23.7581 53.9484 23.7581 53.9218 23.7581C46.011 23.7793 38.5729 26.8887 32.9783 32.5125C27.3838 38.1379 24.3142 45.5919 24.3354 53.5027C24.3567 61.4136 27.4661 68.8516 33.0904 74.4462C38.6957 80.0217 46.1183 83.0896 53.9994 83.0896H54.0801C70.4378 83.0455 83.7101 69.7021 83.6665 53.3444C83.6229 37.0138 70.3231 23.7581 54.002 23.7581Z" fill="#FFA67C"/>
<path d="M23.2729 53.506C23.3181 70.4497 37.1391 84.1974 54.0822 84.1522C71.0265 84.1071 84.7736 70.2861 84.7285 53.3419C84.6833 36.3982 70.8623 22.6505 53.9181 22.6957C36.9749 22.7408 23.2278 36.5618 23.2729 53.506ZM75.3689 53.3668C75.4002 65.1494 65.8399 74.7603 54.0573 74.7922C42.2757 74.8235 32.6638 65.2636 32.6325 53.4811C32.6012 41.6985 42.1615 32.0876 53.9431 32.0558C65.7262 32.0244 75.3376 41.5843 75.3689 53.3668Z" fill="#AEDEE9"/>
<path d="M54.2186 86.917C45.3643 86.917 37.0263 83.4713 30.7294 77.2084C24.4112 70.9237 20.9188 62.5671 20.8949 53.6788C20.8455 35.3023 35.7556 20.3121 54.132 20.2632H54.2218C72.559 20.2632 87.4993 35.1541 87.5482 53.5014C87.5716 62.3892 84.1238 70.7643 77.8396 77.083C71.5549 83.4012 63.1983 86.8941 54.31 86.9175C54.2797 86.917 54.2489 86.917 54.2186 86.917ZM54.2218 22.3882C54.1937 22.3882 54.166 22.3882 54.1379 22.3882C36.9333 22.4344 22.9742 36.4684 23.0204 53.6735C23.0427 61.9939 26.3126 69.8176 32.2286 75.7018C38.1441 81.5864 45.9635 84.8302 54.3047 84.792C62.6257 84.7697 70.4488 81.4998 76.333 75.5838C82.2171 69.6678 85.4455 61.8271 85.4232 53.5061C85.3775 36.3308 71.3881 22.3882 54.2218 22.3882ZM54.2197 77.0889C47.977 77.0889 42.0976 74.6594 37.6574 70.2432C33.2024 65.8115 30.7395 59.9194 30.723 53.6528C30.6885 40.6956 41.2019 30.1258 54.1586 30.0908H54.2218C67.1514 30.0908 77.6866 40.5909 77.7211 53.5274C77.7376 59.7945 75.3066 65.6994 70.8749 70.1545C66.4438 74.6095 60.5517 77.0719 54.2845 77.0889C54.2627 77.0889 54.2409 77.0889 54.2197 77.0889ZM54.2213 32.2163C54.2016 32.2163 54.1836 32.2163 54.1639 32.2163C42.3787 32.2482 32.8161 41.8617 32.8475 53.648C32.8624 59.3472 35.1032 64.7059 39.1556 68.7371C43.1941 72.7544 48.5422 74.9644 54.2192 74.9644H54.2776C59.9774 74.9495 65.3361 72.7092 69.3672 68.6569C73.3983 64.604 75.6099 59.2335 75.5951 53.5332C75.5643 41.7671 65.981 32.2163 54.2213 32.2163Z" fill="#FFA67C"/>
<path d="M48.8433 46.3505H46.5063C46.5063 46.3526 46.5069 46.3547 46.5069 46.3568V62.2954H48.8438C49.3145 62.2954 49.696 61.914 49.696 61.4433V47.2026C49.696 46.7319 49.314 46.3505 48.8433 46.3505Z" fill="#FFF9F6"/>
<path d="M68.9442 50.3993C69.306 50.1619 69.5456 49.7549 69.5456 49.2895V47.7675C69.5456 47.0301 68.9479 46.4325 68.2105 46.4325H66.7395H59.5634C59.1187 46.4325 58.758 46.0718 58.758 45.6271V40.6594C58.758 38.5344 57.0373 36.811 54.9128 36.8068C54.2785 36.8057 53.759 37.3189 53.759 37.9532V41.2783C53.759 42.0672 53.5544 42.8423 53.165 43.5281L50.7802 47.733C50.5784 48.0958 50.4626 48.5134 50.4626 48.958V48.9851H49.697V59.7228H50.4796C50.648 61.3999 52.0632 62.7089 53.7845 62.7089H55.5142H66.7395H68.1425C68.9176 62.7089 69.5456 62.0804 69.5456 61.3059V60.0431C69.5456 59.6117 69.3511 59.226 69.0451 58.9689C68.8374 58.7941 68.8374 58.486 69.0451 58.3112C69.3511 58.0536 69.5456 57.6679 69.5456 57.237V55.9743C69.5456 55.5429 69.3511 55.1572 69.0451 54.9001C68.8374 54.7253 68.8374 54.4172 69.0451 54.2424C69.3511 53.9847 69.5456 53.599 69.5456 53.1682V51.9054C69.5456 51.4246 69.3023 51.0044 68.933 50.7531C68.8066 50.6671 68.8167 50.4833 68.9442 50.3993Z" fill="#FFF9F6"/>
<path d="M44.907 64.2179H39.6551C38.9921 64.2179 38.4545 63.6803 38.4545 63.0173V45.9567C38.4545 45.2937 38.9921 44.7561 39.6551 44.7561H44.907C45.791 44.7561 46.5077 45.4728 46.5077 46.3568V62.6173C46.5077 63.5013 45.791 64.2179 44.907 64.2179Z" fill="#FFA67C"/>
<path d="M45.4098 65.9045H40.1579C38.91 65.9045 37.8948 64.8893 37.8948 63.6414V46.5808C37.8948 45.3329 38.91 44.3177 40.1579 44.3177H45.4098C46.8782 44.3177 48.073 45.5125 48.073 46.9814V63.2414C48.073 64.7097 46.8782 65.9045 45.4098 65.9045ZM40.1579 46.4432C40.0819 46.4432 40.0198 46.5048 40.0198 46.5813V63.6419C40.0198 63.7184 40.0819 63.78 40.1579 63.78H45.4098C45.7068 63.78 45.948 63.5388 45.948 63.2419V46.9814C45.948 46.6844 45.7063 46.4427 45.4098 46.4427H40.1579V46.4432Z" fill="#5CBCD2"/>
<path d="M49.3462 63.982H47.0098C46.4233 63.982 45.9473 63.506 45.9473 62.9195V46.9975C45.9473 46.9895 45.9473 46.982 45.9473 46.9746C45.9473 46.3881 46.4233 45.9121 47.0098 45.9121H49.3467C50.4023 45.9121 51.2614 46.7711 51.2614 47.8267V62.0674C51.2614 63.123 50.4023 63.982 49.3462 63.982ZM48.0723 61.857H49.1364V48.0371H48.0723V61.857ZM49.3462 48.0371H49.3515H49.3462Z" fill="#5CBCD2"/>
<path d="M68.6447 64.3961H54.2867C52.3587 64.3961 50.7113 63.1641 50.1275 61.4073C49.5739 61.3706 49.1367 60.91 49.1367 60.3474V49.6098C49.1367 49.0727 49.5352 48.6286 50.0531 48.5574C50.127 48.3077 50.2279 48.0676 50.3543 47.8408L52.7434 43.6285C53.0414 43.1036 53.1987 42.507 53.1987 41.9024V38.5773C53.1987 37.9877 53.4292 37.433 53.8478 37.016C54.2665 36.5984 54.8216 36.3684 55.4124 36.3684H55.4177C58.1223 36.3737 60.3227 38.5784 60.3227 41.2835V45.9941H68.7127C70.035 45.9941 71.1103 47.0694 71.1103 48.3922V49.9137C71.1103 50.3828 70.9737 50.8317 70.7262 51.2121C70.9737 51.6004 71.1103 52.0557 71.1103 52.529V53.7918C71.1103 54.2997 70.9551 54.7874 70.6725 55.1954C70.9551 55.6034 71.1103 56.0911 71.1103 56.5989V57.8617C71.1103 58.3696 70.9551 58.8568 70.6725 59.2648C70.9551 59.6728 71.1103 60.1604 71.1103 60.6683V61.9311C71.1103 63.29 70.0042 64.3961 68.6447 64.3961ZM51.2617 59.3227C51.6766 59.4358 51.9938 59.7955 52.0389 60.2417C52.1547 61.3988 53.1211 62.2711 54.2867 62.2711H68.6447C68.8328 62.2711 68.9853 62.1181 68.9853 61.93V60.6673C68.9853 60.5291 68.9088 60.4441 68.8636 60.4064C68.5236 60.1201 68.3292 59.7041 68.3292 59.2642C68.3292 58.8249 68.5241 58.4089 68.8636 58.1231C68.9093 58.0849 68.9858 57.9999 68.9858 57.8617V56.5989C68.9858 56.4608 68.9093 56.3758 68.8641 56.3381C68.5241 56.0518 68.3297 55.6358 68.3297 55.1959C68.3297 54.756 68.5241 54.3401 68.8631 54.0548C68.9093 54.016 68.9858 53.931 68.9858 53.7929V52.5301C68.9858 52.3734 68.8827 52.2868 68.8381 52.256C68.4875 52.0185 68.2803 51.6227 68.284 51.1977C68.2877 50.769 68.5045 50.3722 68.8647 50.1363C68.9013 50.1119 68.9863 50.0417 68.9863 49.9148V48.3933C68.9863 48.2429 68.8641 48.1202 68.7138 48.1202H60.0666C59.0366 48.1202 58.1988 47.2824 58.1988 46.2518V41.2841C58.1988 39.7482 56.9493 38.4971 55.414 38.4939C55.389 38.4939 55.3672 38.503 55.3491 38.521C55.3247 38.5455 55.3247 38.5699 55.3247 38.5779V41.903C55.3247 42.8741 55.0713 43.8335 54.5932 44.6777L52.2084 48.882C52.0905 49.0934 52.0288 49.332 52.0288 49.5827C52.0288 50.0662 51.7058 50.4933 51.2633 50.6288V59.3227H51.2617ZM69.4464 51.024H69.4517H69.4464ZM70.0318 50.4981C70.0324 50.4981 70.0329 50.4986 70.0334 50.4991C70.0329 50.4986 70.0324 50.4981 70.0318 50.4981Z" fill="#5CBCD2"/>
</svg>
