<svg width="140" height="140" viewBox="0 0 140 140" fill="none" xmlns="http://www.w3.org/2000/svg">
<path d="M70 140C108.66 140 140 108.66 140 70C140 31.3401 108.66 0 70 0C31.3401 0 0 31.3401 0 70C0 108.66 31.3401 140 70 140Z" fill="#AEDEE9" fill-opacity="0.8"/>
<path d="M113.643 26.3571C101.986 14.6993 86.4868 8.2793 70.0004 8.2793C56.985 8.2793 44.5376 12.2827 34.0037 19.8569C30.8783 22.104 27.946 24.6601 25.2917 27.4503C24.3057 28.4839 23.3498 29.5607 22.4548 30.6446C21.0127 32.3831 19.651 34.222 18.4063 36.1114C11.7812 46.1786 8.27954 57.8967 8.27954 70.0002C8.27954 85.5183 13.9711 100.16 24.3615 111.548C25.17 112.434 26.5211 112.577 27.4732 111.846C28.0324 111.418 28.5784 110.971 29.1136 110.512C30.1023 109.664 30.2059 108.165 29.326 107.204C20.3406 97.389 14.8511 84.3239 14.8511 70.0002C14.8511 59.1846 17.9786 48.7152 23.895 39.7257C25.0071 38.0378 26.2241 36.3939 27.5175 34.8345C28.3179 33.8651 29.1691 32.9067 30.0501 31.9828C32.4254 29.4857 35.0466 27.2012 37.8403 25.1922C47.2493 18.4268 58.37 14.8508 70.0004 14.8508C100.41 14.8508 125.15 39.5909 125.15 70.0002C125.15 85.5331 118.546 100.429 107.03 110.868C104.747 112.94 102.274 114.831 99.6796 116.49C90.8259 122.155 80.5627 125.15 70.0004 125.15C65.0711 125.15 60.2936 124.495 55.7456 123.274C54.2928 122.884 53.6059 121.218 54.3453 119.908C55.2558 118.296 53.9934 116.32 52.1471 116.47L41.6682 117.318C40.0382 117.45 39.0574 119.187 39.7866 120.651L44.475 130.061C45.3011 131.719 47.6441 131.779 48.5547 130.167L48.6859 129.934C49.2238 128.981 50.3545 128.541 51.3979 128.87C57.3378 130.744 63.5929 131.721 70.0007 131.721C81.8208 131.721 93.3085 128.368 103.221 122.026C106.123 120.17 108.891 118.054 111.445 115.736C124.331 104.054 131.722 87.3842 131.722 70.0004C131.721 53.5138 125.301 38.0145 113.643 26.3571Z" fill="#FFD0B9"/>
<path d="M36.8203 59.6944H15.3289V57.8372C15.3289 49.7973 39.8346 44.3888 39.8346 27.6886C39.8346 20.3971 35.2261 15.2772 29.1774 13.1286C27.0859 12.3856 24.8232 11.9971 22.5173 11.9971C13.9401 11.9971 5.90023 17.4084 5.90023 26.2199C5.90023 30.397 7.83453 31.6313 10.4604 31.6313C10.8175 31.6313 11.1576 31.6113 11.4833 31.5684C14.1775 31.2339 15.7175 29.5769 15.7175 27.9226C15.7175 26.9626 15.8432 26.1111 16.0746 25.3684C16.6231 23.5741 17.7887 22.3943 19.2918 21.7457C20.2746 21.3172 21.4003 21.117 22.5974 21.117C27.6973 21.117 29.7861 24.8284 29.7861 27.997C29.7861 38.8998 4.89453 45.4686 4.89453 57.837V65.3371C4.89453 67.2686 7.52309 68.5057 9.30016 68.5057H36.8203C38.5232 68.5057 39.9916 66.34 39.9916 64.0199C39.9916 61.7028 38.5232 59.6944 36.8203 59.6944Z" fill="#5CBCD2"/>
<path d="M79.6686 46.8628H76.0344V38.7428C76.0344 36.5001 73.56 35.5742 71.0086 35.5742C68.5372 35.5742 65.9828 36.4998 65.9828 38.7428V46.8628H56.9399L71.7802 17.1771C72.0146 16.7114 72.1688 16.2485 72.1688 15.8627C72.1688 13.5425 68.9231 11.9971 67.146 11.9971C65.5204 11.9971 63.8202 12.6943 62.8946 14.6256L44.5718 50.6486C44.186 51.3428 44.0291 52.0401 44.0291 52.66C44.0291 54.9 45.5004 56.2144 47.432 56.2144H65.9833V65.3373C65.9833 67.4231 68.5375 68.5059 71.0091 68.5059C73.5606 68.5059 76.0349 67.4231 76.0349 65.3373V56.2144H79.6692C81.292 56.2144 82.8378 53.8973 82.8378 51.5772C82.8372 49.1772 81.7544 46.8628 79.6686 46.8628Z" fill="#5CBCD2"/>
<path d="M102.806 40.137C101.646 40.137 100.563 40.6771 100.02 41.7599L72.2683 98.1142C72.0397 98.5001 71.8855 98.9627 71.8855 99.4287C71.8855 101.054 73.3511 102.832 75.5941 102.832C76.8312 102.832 78.0685 102.212 78.6085 101.129L106.36 45.0086C106.591 44.5429 106.671 44.08 106.671 43.6171C106.671 41.5285 104.66 40.137 102.806 40.137Z" fill="#FFA67C"/>
<path d="M130.766 72.8229H103.326C101.083 72.8229 98.9199 74.4458 98.9199 75.9915V87.8973C98.9199 89.7514 101.16 91.143 103.869 91.143C106.497 91.143 108.968 89.7514 108.968 87.8973V81.6345H125.123V86.7373L104.949 122.914C104.563 123.534 104.486 124.074 104.486 124.692C104.486 126.566 105.846 128.14 107.674 129.006C110.986 126.889 114.106 124.5 117.003 121.872L133.24 90.68C134.169 88.8229 135.174 86.4286 135.174 84.8058V75.9915C135.174 74.4458 132.7 72.8229 130.766 72.8229Z" fill="#5CBCD2"/>
</svg>
