<svg width="124" height="124" viewBox="0 0 124 124" fill="none" xmlns="http://www.w3.org/2000/svg">
<path d="M62 124C96.2416 124 124 96.2416 124 62C124 27.7583 96.2416 0 62 0C27.7583 0 0 27.7583 0 62C0 96.2416 27.7583 124 62 124Z" fill="#AEDEE9"/>
<path d="M92.9872 35.7018C87.9886 30.1476 79.3344 26.4792 69.4917 26.4792C54.0177 26.4792 41.4754 35.5595 41.4754 46.7456C41.4754 49.1351 42.0438 51.4213 43.09 53.5525C33.3122 56.7043 26.4792 63.8084 26.4792 72.0622C26.4792 76.7639 28.7008 81.091 32.408 84.5268L27.59 97.5209L53.4708 123.402C56.2605 123.786 59.1047 124 62.0001 124C94.7158 124 121.494 98.6552 123.817 66.532L93.013 35.7275L92.9872 35.7018Z" fill="#5CBCD2"/>
<path d="M69.4977 26.4792C84.9745 26.4792 97.5208 35.5542 97.5208 46.7486C97.5208 51.4485 95.3038 55.7716 91.5923 59.2094L96.4151 72.2065L78.7248 65.8915C75.835 66.6201 72.7307 67.0179 69.4977 67.0179C54.0207 67.0179 41.4744 57.9429 41.4744 46.7486C41.4744 35.5542 54.0204 26.4792 69.4977 26.4792Z" fill="#FFA67C"/>
<path d="M54.5028 49.21C50.1076 49.21 45.9298 49.9105 42.1484 51.1618C44.9344 60.2333 56.1171 67.0181 69.4977 67.0181C72.7309 67.0181 75.8352 66.6202 78.7251 65.8916L84.6137 67.9939C82.0344 57.3283 69.5184 49.21 54.5028 49.21Z" fill="#FFA67C"/>
<path d="M68.6667 64.3715V61.6118C65.2118 61.2597 62.1107 59.886 59.3665 57.4924L62.1261 54.2037C64.2427 56.0433 66.4209 57.1387 68.6667 57.4924V50.1581C65.818 49.4783 63.7321 48.5829 62.4092 47.4739C61.0862 46.3649 60.4248 44.7205 60.4248 42.5408C60.4248 40.3612 61.1846 38.5783 62.7107 37.1908C64.2367 35.8048 66.2209 35.0494 68.6667 34.9233V33.0327H71.0848V34.9601C73.8568 35.1632 76.4778 36.1077 78.9483 37.7967L76.4901 41.2747C74.8258 40.0902 73.0261 39.3596 71.0848 39.0811V46.1878H71.1986C74.0967 46.8692 76.2255 47.789 77.5853 48.9475C78.9481 50.1072 79.628 51.7901 79.628 53.9945C79.628 56.2005 78.8466 57.9969 77.2838 59.3815C75.7209 60.769 73.6565 61.5243 71.0845 61.6504V64.3715H68.6667ZM65.9996 39.9704C65.3566 40.5365 65.0367 41.2426 65.0367 42.087C65.0367 42.9314 65.2889 43.5992 65.7935 44.0898C66.295 44.582 67.255 45.0543 68.667 45.5081V38.9676C67.5317 39.069 66.6424 39.4027 65.9996 39.9704ZM73.9585 56.5463C74.6631 55.9679 75.0168 55.2373 75.0168 54.3543C75.0168 53.4728 74.7398 52.773 74.1861 52.2561C73.6293 51.7392 72.5954 51.2548 71.085 50.8009V57.6047C72.294 57.48 73.2509 57.1263 73.9585 56.5463Z" fill="#FFA67C"/>
<path d="M54.5024 51.7932C39.0256 51.7932 26.4792 60.8682 26.4792 72.0625C26.4792 76.7625 28.6963 81.0855 32.4078 84.5233L27.585 97.5205L45.2753 91.2054C48.1651 91.934 51.2694 92.3319 54.5024 92.3319C69.9794 92.3319 82.5257 83.2569 82.5257 72.0625C82.5257 60.8682 69.9796 51.7932 54.5024 51.7932Z" fill="#163F5B"/>
<path d="M40.3394 76.9808C43.0566 76.9808 45.2593 74.778 45.2593 72.0608C45.2593 69.3436 43.0566 67.1409 40.3394 67.1409C37.6222 67.1409 35.4194 69.3436 35.4194 72.0608C35.4194 74.778 37.6222 76.9808 40.3394 76.9808Z" fill="white"/>
<path d="M54.5073 76.9808C57.2245 76.9808 59.4273 74.778 59.4273 72.0608C59.4273 69.3436 57.2245 67.1409 54.5073 67.1409C51.7901 67.1409 49.5874 69.3436 49.5874 72.0608C49.5874 74.778 51.7901 76.9808 54.5073 76.9808Z" fill="white"/>
<path d="M68.6653 76.9808C71.3825 76.9808 73.5853 74.778 73.5853 72.0608C73.5853 69.3436 71.3825 67.1409 68.6653 67.1409C65.9481 67.1409 63.7454 69.3436 63.7454 72.0608C63.7454 74.778 65.9481 76.9808 68.6653 76.9808Z" fill="white"/>
</svg>
