<svg width="145" height="145" viewBox="0 0 145 145" fill="none" xmlns="http://www.w3.org/2000/svg">
<g clip-path="url(#clip0)">
<path d="M129.873 129.621H3.22143C1.28547 129.621 -0.282104 128.051 -0.282104 126.116V21.9736C-0.282104 15.8338 4.69386 10.8578 10.8336 10.8578H122.261C128.399 10.8578 133.376 15.8338 133.376 21.9736V126.116C133.376 128.052 131.808 129.621 129.873 129.621Z" fill="#AEDEE9" fill-opacity="0.9"/>
<path d="M133.375 21.9747V126.115C133.375 128.051 131.809 129.621 129.873 129.621H119.245C121.18 129.621 122.75 128.051 122.75 126.115V21.9747C122.75 15.8327 117.772 10.8589 111.634 10.8589H122.263C128.4 10.8589 133.375 15.8327 133.375 21.9747Z" fill="#AEDEE9"/>
<path d="M133.375 21.9747V38.9746H-0.283203V21.9747C-0.283203 15.8327 4.69498 10.8589 10.8358 10.8589H122.263C128.401 10.8589 133.375 15.8327 133.375 21.9747Z" fill="#5CBCD2" fill-opacity="0.9"/>
<path d="M133.375 21.9747V38.9746H122.75V21.9747C122.75 15.8327 117.772 10.8589 111.634 10.8589H122.263C128.4 10.8589 133.375 15.8327 133.375 21.9747Z" fill="#5CBCD2"/>
<path d="M22.2283 51.9226H14.6239C13.4147 51.9226 12.4357 50.9424 12.4357 49.7344C12.4357 48.5264 13.4147 47.5462 14.6239 47.5462H22.2283C23.4374 47.5462 24.4165 48.5264 24.4165 49.7344C24.4165 50.9424 23.4374 51.9226 22.2283 51.9226Z" fill="#FFF9F6"/>
<path d="M45.6032 51.9226H37.9976C36.7896 51.9226 35.8094 50.9424 35.8094 49.7344C35.8094 48.5264 36.7896 47.5462 37.9976 47.5462H45.6032C46.8112 47.5462 47.7914 48.5264 47.7914 49.7344C47.7914 50.9424 46.8112 51.9226 45.6032 51.9226Z" fill="#FFF9F6"/>
<path d="M68.9755 51.9226H61.3699C60.1619 51.9226 59.1829 50.9424 59.1829 49.7344C59.1829 48.5264 60.1619 47.5462 61.3699 47.5462H68.9755C70.1846 47.5462 71.1637 48.5264 71.1637 49.7344C71.1637 50.9424 70.1846 51.9226 68.9755 51.9226Z" fill="#FFF9F6"/>
<path d="M92.3504 51.9226H84.7448C83.5368 51.9226 82.5566 50.9424 82.5566 49.7344C82.5566 48.5264 83.5368 47.5462 84.7448 47.5462H92.3504C93.5584 47.5462 94.5386 48.5264 94.5386 49.7344C94.5386 50.9424 93.5584 51.9226 92.3504 51.9226Z" fill="#FFF9F6"/>
<path d="M115.723 51.9226H108.118C106.909 51.9226 105.93 50.9424 105.93 49.7344C105.93 48.5264 106.909 47.5462 108.118 47.5462H115.723C116.932 47.5462 117.911 48.5264 117.911 49.7344C117.911 50.9424 116.932 51.9226 115.723 51.9226Z" fill="#FFF9F6"/>
<path d="M22.2283 62.9253H14.6239C13.4147 62.9253 12.4357 61.9452 12.4357 60.7371C12.4357 59.5291 13.4147 58.549 14.6239 58.549H22.2283C23.4374 58.549 24.4165 59.5291 24.4165 60.7371C24.4165 61.9452 23.4374 62.9253 22.2283 62.9253Z" fill="#FFF9F6"/>
<path d="M45.6032 62.9253H37.9976C36.7896 62.9253 35.8094 61.9452 35.8094 60.7371C35.8094 59.5291 36.7896 58.549 37.9976 58.549H45.6032C46.8112 58.549 47.7914 59.5291 47.7914 60.7371C47.7914 61.9452 46.8112 62.9253 45.6032 62.9253Z" fill="#FFF9F6"/>
<path d="M68.9755 62.9253H61.3699C60.1619 62.9253 59.1829 61.9452 59.1829 60.7371C59.1829 59.5291 60.1619 58.549 61.3699 58.549H68.9755C70.1846 58.549 71.1637 59.5291 71.1637 60.7371C71.1637 61.9452 70.1846 62.9253 68.9755 62.9253Z" fill="#FFF9F6"/>
<path d="M92.3504 62.9253H84.7448C83.5368 62.9253 82.5566 61.9452 82.5566 60.7371C82.5566 59.5291 83.5368 58.549 84.7448 58.549H92.3504C93.5584 58.549 94.5386 59.5291 94.5386 60.7371C94.5386 61.9452 93.5584 62.9253 92.3504 62.9253Z" fill="#FFF9F6"/>
<path d="M115.723 62.9253H108.118C106.909 62.9253 105.93 61.9452 105.93 60.7371C105.93 59.5291 106.909 58.549 108.118 58.549H115.723C116.932 58.549 117.911 59.5291 117.911 60.7371C117.911 61.9452 116.932 62.9253 115.723 62.9253Z" fill="#FFF9F6"/>
<path d="M55.3936 117.467C53.7486 117.467 52.1025 116.84 50.848 115.584L39.5973 104.334C37.0861 101.824 37.0861 97.7536 39.5973 95.2424C42.1074 92.7323 46.1784 92.7323 48.6885 95.2424L55.3936 101.947L81.6574 75.6826C84.1686 73.1736 88.2385 73.1725 90.7486 75.6826C93.2598 78.1938 93.2598 82.2637 90.7486 84.775L59.9392 115.584C58.6836 116.84 57.0386 117.467 55.3936 117.467Z" fill="#FFA67C"/>
<path d="M23.5868 19.7169H19.5224C17.7955 19.7169 16.395 18.3175 16.395 16.5895V5.95833C16.395 4.23145 17.7955 2.83203 19.5224 2.83203H23.5868C25.3137 2.83203 26.7142 4.23145 26.7142 5.95833V16.5895C26.7142 18.3175 25.3137 19.7169 23.5868 19.7169Z" fill="#FFA67C"/>
<path d="M52.7941 19.7169H48.7286C47.0017 19.7169 45.6023 18.3175 45.6023 16.5895V5.95833C45.6023 4.23145 47.0017 2.83203 48.7286 2.83203H52.7941C54.521 2.83203 55.9204 4.23145 55.9204 5.95833V16.5895C55.9204 18.3175 54.521 19.7169 52.7941 19.7169Z" fill="#FFA67C"/>
<path d="M82.0015 19.7169H77.936C76.2091 19.7169 74.8097 18.3175 74.8097 16.5895V5.95833C74.8097 4.23145 76.2091 2.83203 77.936 2.83203H82.0015C83.7284 2.83203 85.1278 4.23145 85.1278 5.95833V16.5895C85.1278 18.3175 83.7273 19.7169 82.0015 19.7169Z" fill="#FFA67C"/>
<path d="M111.208 19.7169H107.143C105.416 19.7169 104.016 18.3175 104.016 16.5895V5.95833C104.016 4.23145 105.416 2.83203 107.143 2.83203H111.208C112.935 2.83203 114.335 4.23145 114.335 5.95833V16.5895C114.335 18.3175 112.935 19.7169 111.208 19.7169Z" fill="#FFA67C"/>
<path d="M144.716 115.65C144.716 130.475 132.699 142.492 117.874 142.492C103.049 142.492 91.0315 130.475 91.0315 115.65C91.0315 100.826 103.049 88.8084 117.874 88.8084C132.699 88.8084 144.716 100.826 144.716 115.65Z" fill="#5CBCD2"/>
<path d="M137.179 115.65C137.179 126.312 128.535 134.954 117.874 134.954C107.213 134.954 98.5701 126.312 98.5701 115.65C98.5701 104.989 107.213 96.3467 117.874 96.3467C128.535 96.3467 137.179 104.989 137.179 115.65Z" fill="#FFF9F6"/>
<path d="M117.874 104.473C116.666 104.473 115.686 103.494 115.686 102.285V99.62C115.686 98.4119 116.666 97.4318 117.874 97.4318C119.082 97.4318 120.062 98.4119 120.062 99.62V102.285C120.062 103.494 119.082 104.473 117.874 104.473Z" fill="#AEDEE9"/>
<path d="M117.874 133.869C116.666 133.869 115.686 132.889 115.686 131.681V129.016C115.686 127.806 116.666 126.827 117.874 126.827C119.082 126.827 120.062 127.806 120.062 129.016V131.681C120.062 132.889 119.082 133.869 117.874 133.869Z" fill="#AEDEE9"/>
<path d="M133.905 117.838H131.24C130.032 117.838 129.052 116.859 129.052 115.65C129.052 114.442 130.032 113.463 131.24 113.463H133.905C135.114 113.463 136.093 114.442 136.093 115.65C136.093 116.859 135.114 117.838 133.905 117.838Z" fill="#AEDEE9"/>
<path d="M122.697 117.838H117.874C116.666 117.838 115.686 116.859 115.686 115.65V111.218C115.686 110.009 116.666 109.03 117.874 109.03C119.082 109.03 120.062 110.01 120.062 111.218V113.463H122.696C123.905 113.463 124.884 114.442 124.884 115.65C124.884 116.859 123.905 117.838 122.697 117.838Z" fill="#AEDEE9"/>
<path d="M104.51 117.838H101.845C100.636 117.838 99.6567 116.859 99.6567 115.65C99.6567 114.442 100.636 113.463 101.845 113.463H104.51C105.718 113.463 106.698 114.442 106.698 115.65C106.698 116.859 105.718 117.838 104.51 117.838Z" fill="#AEDEE9"/>
</g>
<defs>
<clipPath id="clip0">
<rect width="145" height="145" fill="white"/>
</clipPath>
</defs>
</svg>
