<svg width="124" height="124" viewBox="0 0 124 124" fill="none" xmlns="http://www.w3.org/2000/svg">
<path d="M62 124C96.2416 124 124 96.2416 124 62C124 27.7583 96.2416 0 62 0C27.7583 0 0 27.7583 0 62C0 96.2416 27.7583 124 62 124Z" fill="#FFD0B9"/>
<path d="M123.724 67.7631L94.3821 38.4271L94.3303 38.3625C94.072 38.0267 93.6716 37.807 93.2196 37.807H30.7806C30.0056 37.807 29.3855 38.44 29.3855 39.2021V81.7625H26.4792V85.108L65.2837 123.912C96.0791 122.305 120.914 98.2255 123.724 67.7631Z" fill="#FFA67C"/>
<path d="M97.5209 81.7635H26.4792V85.109H97.5209V81.7635Z" fill="#EBF0F3"/>
<path d="M97.2873 85.1277H26.7129L32.7063 86.1893H91.294L97.2873 85.1277Z" fill="#E1E6E9"/>
<path d="M93.218 37.8108H30.7821C30.0106 37.8108 29.3855 38.4359 29.3855 39.2074V81.7676H94.6147V39.2074C94.6147 38.4362 93.9893 37.8108 93.218 37.8108Z" fill="#163F5B"/>
<path d="M92.0312 40.3898H31.9688V79.1776H92.0312V40.3898Z" fill="#EBF0F3"/>
<path d="M92.0312 40.394V79.1844H31.9688" fill="#E1E6E9"/>
<path d="M62 39.6627C62.3466 39.6627 62.6277 39.3817 62.6277 39.035C62.6277 38.6884 62.3466 38.4073 62 38.4073C61.6533 38.4073 61.3723 38.6884 61.3723 39.035C61.3723 39.3817 61.6533 39.6627 62 39.6627Z" fill="#3A556A"/>
<path d="M77.9844 42.1532H34.1409V45.0698H77.9844V42.1532Z" fill="#27A2DB"/>
<path d="M81.0925 45.0943C81.9115 45.0943 82.5754 44.4304 82.5754 43.6114C82.5754 42.7925 81.9115 42.1285 81.0925 42.1285C80.2735 42.1285 79.6096 42.7925 79.6096 43.6114C79.6096 44.4304 80.2735 45.0943 81.0925 45.0943Z" fill="#44C4A1"/>
<path d="M84.7329 45.0943C85.5519 45.0943 86.2158 44.4304 86.2158 43.6114C86.2158 42.7925 85.5519 42.1285 84.7329 42.1285C83.9139 42.1285 83.25 42.7925 83.25 43.6114C83.25 44.4304 83.9139 45.0943 84.7329 45.0943Z" fill="#FCD462"/>
<path d="M88.3757 45.0943C89.1947 45.0943 89.8586 44.4304 89.8586 43.6114C89.8586 42.7925 89.1947 42.1285 88.3757 42.1285C87.5567 42.1285 86.8928 42.7925 86.8928 43.6114C86.8928 44.4304 87.5567 45.0943 88.3757 45.0943Z" fill="#E56353"/>
<path d="M62.0001 60.5242C65.5209 60.5242 68.3752 57.67 68.3752 54.1491C68.3752 50.6283 65.5209 47.774 62.0001 47.774C58.4792 47.774 55.625 50.6283 55.625 54.1491C55.625 57.67 58.4792 60.5242 62.0001 60.5242Z" fill="#F6C358"/>
<path d="M62 59.462C64.9343 59.462 67.313 57.0833 67.313 54.149C67.313 51.2148 64.9343 48.8361 62 48.8361C59.0657 48.8361 56.687 51.2148 56.687 54.149C56.687 57.0833 59.0657 59.462 62 59.462Z" fill="#FCD462"/>
<path d="M61.9999 59.4619C63.915 59.4619 65.5881 58.4452 66.5228 56.9257C65.5664 55.439 63.8991 54.4536 61.9999 54.4536C60.1007 54.4536 58.4334 55.4393 57.4771 56.9257C58.4117 58.4452 60.0849 59.4619 61.9999 59.4619Z" fill="#DC8744"/>
<path d="M61.9999 53.1225C62.9266 53.1225 63.6778 52.3713 63.6778 51.4446C63.6778 50.5179 62.9266 49.7667 61.9999 49.7667C61.0732 49.7667 60.322 50.5179 60.322 51.4446C60.322 52.3713 61.0732 53.1225 61.9999 53.1225Z" fill="#DC8744"/>
<path d="M72.2752 63.5111H51.7322V66.1901H72.2752V63.5111Z" fill="#D5D6DB"/>
<path d="M72.2752 63.0142H51.7322V65.6931H72.2752V63.0142Z" fill="white"/>
<path d="M72.2752 68.1052H51.7322V70.7842H72.2752V68.1052Z" fill="#D5D6DB"/>
<path d="M72.2752 67.6183H51.7322V70.2972H72.2752V67.6183Z" fill="white"/>
<path d="M72.2712 72.7067H65.5596V75.3856H72.2712V72.7067Z" fill="#3A556A"/>
<path d="M72.2712 72.2147H65.5596V74.8937H72.2712V72.2147Z" fill="#163F5B"/>
<path d="M60.3224 63.8719H52.4312V64.8407H60.3224V63.8719Z" fill="#D5D6DB"/>
<path d="M60.3224 68.4709H52.4312V69.4397H60.3224V68.4709Z" fill="#D5D6DB"/>
</svg>
